<svg version="1.1" xmlns="http://www.w3.org/2000/svg" style="display: block;" width="190" height="190" viewBox="-0.87 -2.43 1520.87 1520.87" preserveAspectRatio="none"><g id="svg-group-54a01f8c-42f2-4b91-a12b-2d6ada182aaf">
<defs>
	<linearGradient id="Gradient1" gradientUnits="userSpaceOnUse" x1="1055.85" y1="550.788" x2="456.537" y2="964.324">
		<stop class="stop0" offset="0" stop-opacity="1" stop-color="rgb(44,83,76)"/>
		<stop class="stop1" offset="1" stop-opacity="1" stop-color="rgb(64,77,84)"/>
	</linearGradient>
</defs>
<path transform="translate(0,0)" fill="url(#Gradient1)" d="M 286.363 0 L 350.481 0 C 354.338 5.46175 356.482 5.92 363.205 6.96576 C 381.568 9.82181 401.633 12.7943 419.412 18.4021 C 429.832 22.06 439.678 27.4707 449.671 31.9991 C 503.621 56.4482 545.845 99.5355 587.158 140.716 C 613.889 167.36 639.696 192.24 663.524 221.47 C 673.679 233.926 691.283 244.605 702.54 256.379 C 709.951 263.307 715.448 273.354 722.901 280.361 C 736.891 292.499 746.642 298.059 758.335 313.317 C 768.481 297.311 788.202 284.901 801.72 271.794 C 815.724 258.216 829.383 244.237 843.16 230.425 L 941.741 131.801 C 991.983 81.5733 1034.59 37.8682 1105.29 17.5087 C 1118.54 13.6949 1160.09 8.55119 1165.78 0 L 1238.5 0 C 1244.65 9.03201 1276.55 11.0768 1289.05 14.6986 C 1402.78 47.6724 1492.94 142.506 1513.64 260.243 C 1514.5 265.102 1516.17 267.437 1520 270.352 L 1520 370.221 C 1511.18 377.131 1509.19 404.24 1504.76 415.47 C 1492.28 447.102 1476.24 480.476 1454.92 507.23 C 1420.02 550.712 1377.13 587.977 1338.32 628.007 C 1329.59 637.001 1317.78 644.822 1308.68 653.898 C 1282.76 679.735 1256.68 705.515 1230.9 731.498 C 1222.18 740.29 1211.75 749.871 1203.64 759.049 L 1203.91 761.633 C 1215.35 772.267 1225.99 783.925 1237.28 794.733 C 1247.24 804.274 1258.9 812.591 1268.63 822.283 C 1300.6 854.118 1334.12 887.285 1365.78 919.184 C 1417.03 970.82 1471.62 1016.21 1496.98 1086.94 C 1502.44 1102.18 1507.61 1118.12 1511.63 1133.91 C 1514.36 1144.6 1510.53 1150.07 1520 1158.06 L 1520 1242.62 C 1511.71 1248.02 1511.79 1266.71 1509.15 1276.25 C 1506.86 1284.54 1505.4 1293.24 1502.76 1301.6 C 1476.26 1385.71 1416.15 1448.86 1338.51 1488.49 C 1324.59 1495.63 1268.66 1507.67 1261.47 1516 L 1146.34 1516 C 1139.84 1508.07 1119.97 1505.68 1109.06 1501.55 C 1067.54 1486 1023.01 1464.42 990.849 1433.33 C 921.753 1366.53 857.115 1294.13 784.655 1231.04 C 777.147 1224.51 762.002 1205.38 753.598 1201.77 C 699.987 1251.72 649.229 1306.25 596.843 1357.54 C 556.435 1397.1 517.591 1439.78 469.572 1470.6 C 449.804 1483.29 401.979 1500.95 378.643 1504.36 C 338.837 1510.17 288.136 1510.76 248.684 1502.27 C 201.514 1492.1 169.471 1476.74 130.636 1449.29 C 96.2878 1426.96 68.7259 1394.33 47.5805 1358.83 C 6.53765 1289.91 -0.86734 1195.64 15.8468 1118.47 C 33.7895 1035.63 96.0063 975.682 154.613 919.309 C 165.996 908.359 179.631 899.213 190.395 887.398 C 211.876 867.358 230.803 844.965 252.58 825.207 C 269.9 809.493 289.463 792.339 307.025 776.675 C 310.077 773.953 314.43 772.997 316.245 768.989 L 314.907 766.087 C 312.899 763.867 313.079 763.835 312.449 760.795 C 302.647 746.685 263.492 709.555 249.636 695.693 L 152.375 598.398 C 89.112 535.274 30.0283 485.562 10.595 394.63 C 8.62013 385.389 7.48628 366.541 0 361.766 L 0 282.307 C 3.48725 279.263 5.35411 277.148 6.3103 272.373 C 10.8257 249.826 13.5543 227.073 22.9674 205.843 C 27.6982 195.172 31.065 184.231 36.118 173.686 C 40.6422 164.245 46.7702 156.811 52.0556 148.087 C 101.181 66.9978 187.499 19.5266 279.506 5.04925 C 281.827 4.68402 284.737 1.73966 286.363 0 z"/>
<path transform="translate(0,0)" fill="rgb(116,185,90)" d="M 1202.5 760.427 L 1203.91 761.633 C 1215.35 772.267 1225.99 783.925 1237.28 794.733 C 1247.24 804.274 1258.9 812.591 1268.63 822.283 C 1300.6 854.118 1334.12 887.285 1365.78 919.184 C 1417.03 970.82 1471.62 1016.21 1496.98 1086.94 C 1502.44 1102.18 1507.61 1118.12 1511.63 1133.91 C 1514.36 1144.6 1510.53 1150.07 1520 1158.06 L 1520 1242.62 C 1511.71 1248.02 1511.79 1266.71 1509.15 1276.25 C 1506.86 1284.54 1505.4 1293.24 1502.76 1301.6 C 1476.26 1385.71 1416.15 1448.86 1338.51 1488.49 C 1324.59 1495.63 1268.66 1507.67 1261.47 1516 L 1146.34 1516 C 1139.84 1508.07 1119.97 1505.68 1109.06 1501.55 C 1067.54 1486 1023.01 1464.42 990.849 1433.33 C 921.753 1366.53 857.115 1294.13 784.655 1231.04 C 777.147 1224.51 762.002 1205.38 753.598 1201.77 L 754.474 1199.72 L 757.044 1201.15 L 760.504 1200.03 C 768.121 1191.91 779.241 1181.88 787.59 1173.69 L 857.143 1105.68 L 1073.4 891.03 L 1135.22 830.782 C 1155.42 811.281 1184.99 782.402 1202.5 760.427 z"/>
<path transform="translate(0,0)" fill="rgb(51,160,97)" d="M 1165.78 0 L 1238.5 0 C 1244.65 9.03201 1276.55 11.0768 1289.05 14.6986 C 1402.78 47.6724 1492.94 142.506 1513.64 260.243 C 1514.5 265.102 1516.17 267.437 1520 270.352 L 1520 370.221 C 1511.18 377.131 1509.19 404.24 1504.76 415.47 C 1492.28 447.102 1476.24 480.476 1454.92 507.23 C 1420.02 550.712 1377.13 587.977 1338.32 628.007 C 1329.59 637.001 1317.78 644.822 1308.68 653.898 C 1282.76 679.735 1256.68 705.515 1230.9 731.498 C 1222.18 740.29 1211.75 749.871 1203.64 759.049 C 1201.87 757.474 1203.38 758.953 1202.26 757.581 C 1193 746.228 1180.86 734.269 1170.67 723.808 L 1116.38 667.749 C 1032.99 583.266 948.782 499.601 863.758 416.766 L 800.606 354.14 C 792.152 345.724 766.052 318.364 758.488 314.381 L 758.335 313.317 C 768.481 297.311 788.202 284.901 801.72 271.794 C 815.724 258.216 829.383 244.237 843.16 230.425 L 941.741 131.801 C 991.983 81.5733 1034.59 37.8682 1105.29 17.5087 C 1118.54 13.6949 1160.09 8.55119 1165.78 0 z"/>
<path transform="translate(0,0)" fill="rgb(81,141,225)" d="M 286.363 0 L 350.481 0 C 354.338 5.46175 356.482 5.92 363.205 6.96576 C 381.568 9.82181 401.633 12.7943 419.412 18.4021 C 429.832 22.06 439.678 27.4707 449.671 31.9991 C 503.621 56.4482 545.845 99.5355 587.158 140.716 C 613.889 167.36 639.696 192.24 663.524 221.47 C 673.679 233.926 691.283 244.605 702.54 256.379 C 709.951 263.307 715.448 273.354 722.901 280.361 C 736.891 292.499 746.642 298.059 758.335 313.317 L 758.488 314.381 L 756.284 318.67 C 750.645 323.218 747.427 327.678 742.452 332.671 C 735.8 339.347 728.811 345.906 721.972 352.411 C 683.808 389.185 645.906 426.231 608.27 463.546 L 387.573 681.92 C 377.109 692.384 318.367 747.55 316.176 755.669 C 314.491 759.613 315.332 759.526 312.449 760.795 C 302.647 746.685 263.492 709.555 249.636 695.693 L 152.375 598.398 C 89.112 535.274 30.0283 485.562 10.595 394.63 C 8.62013 385.389 7.48628 366.541 0 361.766 L 0 282.307 C 3.48725 279.263 5.35411 277.148 6.3103 272.373 C 10.8257 249.826 13.5543 227.073 22.9674 205.843 C 27.6982 195.172 31.065 184.231 36.118 173.686 C 40.6422 164.245 46.7702 156.811 52.0556 148.087 C 101.181 66.9978 187.499 19.5266 279.506 5.04925 C 281.827 4.68402 284.737 1.73966 286.363 0 z"/>
<path transform="translate(0,0)" fill="rgb(196,196,196)" d="M 314.907 766.087 L 316.191 764.995 C 328.28 778.947 342.72 792.688 355.953 805.805 L 415.057 864.666 C 484.57 935.2 554.723 1005.1 625.508 1074.36 L 713.022 1161.27 C 722.544 1170.57 744.911 1193.18 754.474 1199.72 L 753.598 1201.77 C 699.987 1251.72 649.229 1306.25 596.843 1357.54 C 556.435 1397.1 517.591 1439.78 469.572 1470.6 C 449.804 1483.29 401.979 1500.95 378.643 1504.36 C 338.837 1510.17 288.136 1510.76 248.684 1502.27 C 201.514 1492.1 169.471 1476.74 130.636 1449.29 C 96.2878 1426.96 68.7259 1394.33 47.5805 1358.83 C 6.53765 1289.91 -0.86734 1195.64 15.8468 1118.47 C 33.7895 1035.63 96.0063 975.682 154.613 919.309 C 165.996 908.359 179.631 899.213 190.395 887.398 C 211.876 867.358 230.803 844.965 252.58 825.207 C 269.9 809.493 289.463 792.339 307.025 776.675 C 310.077 773.953 314.43 772.997 316.245 768.989 L 314.907 766.087 z"/>
<path transform="translate(0,0)" fill="rgb(51,160,97)" d="M 760.504 1200.03 C 758.928 1195.19 759.642 1090.2 759.54 1078.59 L 758.193 968.006 C 757.396 924.015 752.727 873.925 774.065 834.45 C 801.077 784.477 847.424 757.574 903.979 757.328 C 994.697 756.933 1085.21 756.749 1175.91 757.206 C 1181.45 757.233 1198.18 758.192 1202.5 760.427 C 1184.99 782.402 1155.42 811.281 1135.22 830.782 L 1073.4 891.03 L 857.143 1105.68 L 787.59 1173.69 C 779.241 1181.88 768.121 1191.91 760.504 1200.03 z"/>
<path transform="translate(0,0)" fill="rgb(56,102,189)" d="M 316.176 755.669 C 318.367 747.55 377.109 692.384 387.573 681.92 L 608.27 463.546 C 645.906 426.231 683.808 389.185 721.972 352.411 C 728.811 345.906 735.8 339.347 742.452 332.671 C 747.427 327.678 750.645 323.218 756.284 318.67 C 759.213 327.084 759.906 563.349 759.702 583.933 C 759.615 594.928 759.091 605.916 758.134 616.87 C 752.477 676.737 713.384 729.435 656.807 749.936 C 632.642 758.693 586.478 756.201 559.91 756.116 L 443.003 755.652 L 363.247 755.954 C 350.202 756.063 328.335 756.856 316.176 755.669 z"/>
</g></svg>